
    <svg width="300" height="285" viewBox="0 0 300 285" fill="none" xmlns="http://www.w3.org/2000/svg">
      <style>
        .header { font: 600 18px 'Segoe UI', Ubuntu, Sans-Serif; fill: #58a6ff }
        .lang-name { font: 400 11px 'Segoe UI', Ubuntu, Sans-Serif; fill: #c9d1d9 }
      </style>
      <rect data-testid="card-bg" x="0.5" y="0.5" width="99.7%" height="99%" rx="4.5" fill="#0d1117" stroke="#E4E2E2"/>

      
      <text data-testid="header" x="25" y="35" class="header">Top Languages</text>

      <svg data-testid="lang-items" x="25" y="55">
      <g transform="translate(0, 0)">
    <text data-testid="lang-name" x="2" y="15" class="lang-name">Kotlin</text>
    <text x="215" y="34" class="lang-name">72.38%</text>
    <svg width="205">
      <rect rx="5" ry="5" x="0" y="25" width="205" height="8" fill="#ddd"></rect>
      <rect 
        height="8" 
        fill="#A97BFF"
        rx="5" ry="5" x="0" y="25" 
        data-testid="lang-progress" 
        width="72.38%"
      >
      </rect>
    </svg>
  </g><g transform="translate(0, 40)">
    <text data-testid="lang-name" x="2" y="15" class="lang-name">Makefile</text>
    <text x="215" y="34" class="lang-name">23.68%</text>
    <svg width="205">
      <rect rx="5" ry="5" x="0" y="25" width="205" height="8" fill="#ddd"></rect>
      <rect 
        height="8" 
        fill="#427819"
        rx="5" ry="5" x="0" y="25" 
        data-testid="lang-progress" 
        width="23.68%"
      >
      </rect>
    </svg>
  </g><g transform="translate(0, 80)">
    <text data-testid="lang-name" x="2" y="15" class="lang-name">Java</text>
    <text x="215" y="34" class="lang-name">1.96%</text>
    <svg width="205">
      <rect rx="5" ry="5" x="0" y="25" width="205" height="8" fill="#ddd"></rect>
      <rect 
        height="8" 
        fill="#b07219"
        rx="5" ry="5" x="0" y="25" 
        data-testid="lang-progress" 
        width="2%"
      >
      </rect>
    </svg>
  </g><g transform="translate(0, 120)">
    <text data-testid="lang-name" x="2" y="15" class="lang-name">C++</text>
    <text x="215" y="34" class="lang-name">1.86%</text>
    <svg width="205">
      <rect rx="5" ry="5" x="0" y="25" width="205" height="8" fill="#ddd"></rect>
      <rect 
        height="8" 
        fill="#f34b7d"
        rx="5" ry="5" x="0" y="25" 
        data-testid="lang-progress" 
        width="2%"
      >
      </rect>
    </svg>
  </g><g transform="translate(0, 160)">
    <text data-testid="lang-name" x="2" y="15" class="lang-name">Rust</text>
    <text x="215" y="34" class="lang-name">0.12%</text>
    <svg width="205">
      <rect rx="5" ry="5" x="0" y="25" width="205" height="8" fill="#ddd"></rect>
      <rect 
        height="8" 
        fill="#dea584"
        rx="5" ry="5" x="0" y="25" 
        data-testid="lang-progress" 
        width="2%"
      >
      </rect>
    </svg>
  </g>
      </svg>
    </svg>
  